<mxfile host="app.diagrams.net" modified="2021-11-13T03:57:53.810Z" agent="5.0 (Windows NT 10.0; Win64; x64) AppleWebKit/537.36 (KHTML, like Gecko) Chrome/95.0.4638.69 Safari/537.36" etag="zJ4tSW8pS0KArks_X4PU" version="15.7.3" type="github">
  <diagram id="R2lEEEUBdFMjLlhIrx00" name="Page-1">
    <mxGraphModel dx="2736" dy="691" grid="1" gridSize="10" guides="1" tooltips="1" connect="1" arrows="1" fold="1" page="1" pageScale="1" pageWidth="850" pageHeight="1100" math="0" shadow="0" extFonts="Permanent Marker^https://fonts.googleapis.com/css?family=Permanent+Marker">
      <root>
        <mxCell id="0" />
        <mxCell id="1" parent="0" />
        <mxCell id="tLfT9vOAS1rbt2APkhs6-173" value="" style="line;strokeWidth=2;html=1;rounded=0;sketch=0;fontColor=#B5739D;fontStyle=1" vertex="1" parent="1">
          <mxGeometry x="440" y="382.5" width="340" height="10" as="geometry" />
        </mxCell>
        <mxCell id="tLfT9vOAS1rbt2APkhs6-2" value="Department" style="whiteSpace=wrap;html=1;fontStyle=1;fontSize=18;rounded=0;fontColor=#B5739D;" vertex="1" parent="1">
          <mxGeometry x="340" y="510" width="140" height="40" as="geometry" />
        </mxCell>
        <mxCell id="tLfT9vOAS1rbt2APkhs6-3" value="Customer" style="whiteSpace=wrap;html=1;fontStyle=1;fontSize=18;rounded=0;fontColor=#B5739D;" vertex="1" parent="1">
          <mxGeometry x="785" y="240" width="140" height="40" as="geometry" />
        </mxCell>
        <mxCell id="tLfT9vOAS1rbt2APkhs6-32" style="edgeStyle=orthogonalEdgeStyle;shape=link;orthogonalLoop=1;jettySize=auto;html=1;entryX=0.5;entryY=0;entryDx=0;entryDy=0;fontSize=18;rounded=0;fontColor=#B5739D;fontStyle=1" edge="1" parent="1" source="tLfT9vOAS1rbt2APkhs6-4" target="tLfT9vOAS1rbt2APkhs6-15">
          <mxGeometry relative="1" as="geometry" />
        </mxCell>
        <mxCell id="tLfT9vOAS1rbt2APkhs6-6" value="Room" style="whiteSpace=wrap;html=1;direction=south;fontStyle=1;fontSize=18;rounded=0;fontColor=#B5739D;" vertex="1" parent="1">
          <mxGeometry x="785" y="510" width="140" height="40" as="geometry" />
        </mxCell>
        <mxCell id="tLfT9vOAS1rbt2APkhs6-33" style="edgeStyle=orthogonalEdgeStyle;shape=link;orthogonalLoop=1;jettySize=auto;html=1;exitX=0.5;exitY=1;exitDx=0;exitDy=0;entryX=0.5;entryY=0;entryDx=0;entryDy=0;fontSize=18;rounded=0;fontColor=#B5739D;fontStyle=1" edge="1" parent="1" source="tLfT9vOAS1rbt2APkhs6-15" target="tLfT9vOAS1rbt2APkhs6-2">
          <mxGeometry relative="1" as="geometry" />
        </mxCell>
        <mxCell id="tLfT9vOAS1rbt2APkhs6-15" value="&#xa;&#xa;&lt;span style=&quot;font-family: helvetica; font-size: 18px; font-style: normal; letter-spacing: normal; text-align: center; text-indent: 0px; text-transform: none; word-spacing: 0px; background-color: rgb(248, 249, 250); display: inline; float: none;&quot;&gt;has&lt;/span&gt;&#xa;&#xa;" style="rhombus;whiteSpace=wrap;html=1;fontSize=18;rounded=0;fontColor=#B5739D;fontStyle=1" vertex="1" parent="1">
          <mxGeometry x="385" y="440" width="55" height="50" as="geometry" />
        </mxCell>
        <mxCell id="tLfT9vOAS1rbt2APkhs6-25" style="edgeStyle=orthogonalEdgeStyle;orthogonalLoop=1;jettySize=auto;html=1;exitX=0;exitY=0.5;exitDx=0;exitDy=0;entryX=0;entryY=0.5;entryDx=0;entryDy=0;fontSize=18;rounded=0;fontColor=#B5739D;fontStyle=1" edge="1" parent="1">
          <mxGeometry relative="1" as="geometry">
            <mxPoint x="160" y="387.5" as="sourcePoint" />
            <mxPoint x="160" y="387.5" as="targetPoint" />
          </mxGeometry>
        </mxCell>
        <mxCell id="tLfT9vOAS1rbt2APkhs6-31" style="edgeStyle=orthogonalEdgeStyle;shape=link;orthogonalLoop=1;jettySize=auto;html=1;exitX=0;exitY=0.5;exitDx=0;exitDy=0;entryX=1;entryY=0.5;entryDx=0;entryDy=0;fontSize=18;rounded=0;fontColor=#B5739D;fontStyle=1" edge="1" parent="1">
          <mxGeometry relative="1" as="geometry">
            <mxPoint x="160" y="387.5" as="sourcePoint" />
            <mxPoint x="60" y="387.5" as="targetPoint" />
          </mxGeometry>
        </mxCell>
        <mxCell id="tLfT9vOAS1rbt2APkhs6-17" value="has" style="rhombus;whiteSpace=wrap;html=1;fontSize=18;rounded=0;fontColor=#B5739D;fontStyle=1" vertex="1" parent="1">
          <mxGeometry x="600" y="365" width="70" height="45" as="geometry" />
        </mxCell>
        <mxCell id="tLfT9vOAS1rbt2APkhs6-40" value="M" style="text;html=1;resizable=0;autosize=1;align=center;verticalAlign=middle;points=[];fillColor=none;strokeColor=none;fontSize=18;rounded=0;fontColor=#B5739D;fontStyle=1" vertex="1" parent="1">
          <mxGeometry x="885" y="285" width="30" height="30" as="geometry" />
        </mxCell>
        <mxCell id="tLfT9vOAS1rbt2APkhs6-41" value="1" style="text;html=1;resizable=0;autosize=1;align=center;verticalAlign=middle;points=[];fillColor=none;strokeColor=none;fontSize=18;rounded=0;fontColor=#B5739D;fontStyle=1" vertex="1" parent="1">
          <mxGeometry x="880" y="345" width="30" height="30" as="geometry" />
        </mxCell>
        <mxCell id="tLfT9vOAS1rbt2APkhs6-42" value="M" style="text;html=1;resizable=0;autosize=1;align=center;verticalAlign=middle;points=[];fillColor=none;strokeColor=none;fontSize=18;rounded=0;fontColor=#B5739D;fontStyle=1" vertex="1" parent="1">
          <mxGeometry x="880" y="475" width="30" height="30" as="geometry" />
        </mxCell>
        <mxCell id="tLfT9vOAS1rbt2APkhs6-43" value="1" style="text;html=1;resizable=0;autosize=1;align=center;verticalAlign=middle;points=[];fillColor=none;strokeColor=none;fontSize=18;rounded=0;fontColor=#B5739D;fontStyle=1" vertex="1" parent="1">
          <mxGeometry x="880" y="415" width="30" height="30" as="geometry" />
        </mxCell>
        <mxCell id="tLfT9vOAS1rbt2APkhs6-44" value="N" style="text;html=1;resizable=0;autosize=1;align=center;verticalAlign=middle;points=[];fillColor=none;strokeColor=none;fontSize=18;rounded=0;fontColor=#B5739D;fontStyle=1" vertex="1" parent="1">
          <mxGeometry x="410" y="480" width="30" height="30" as="geometry" />
        </mxCell>
        <mxCell id="tLfT9vOAS1rbt2APkhs6-45" value="M" style="text;html=1;resizable=0;autosize=1;align=center;verticalAlign=middle;points=[];fillColor=none;strokeColor=none;fontSize=18;rounded=0;fontColor=#B5739D;fontStyle=1" vertex="1" parent="1">
          <mxGeometry x="410" y="415" width="30" height="30" as="geometry" />
        </mxCell>
        <mxCell id="tLfT9vOAS1rbt2APkhs6-46" value="1" style="text;html=1;resizable=0;autosize=1;align=center;verticalAlign=middle;points=[];fillColor=none;strokeColor=none;fontSize=18;rounded=0;fontColor=#B5739D;fontStyle=1" vertex="1" parent="1">
          <mxGeometry x="750" y="367.5" width="30" height="30" as="geometry" />
        </mxCell>
        <mxCell id="tLfT9vOAS1rbt2APkhs6-48" value="M" style="text;html=1;resizable=0;autosize=1;align=center;verticalAlign=middle;points=[];fillColor=none;strokeColor=none;fontSize=18;rounded=0;fontColor=#B5739D;fontStyle=1" vertex="1" parent="1">
          <mxGeometry x="270" y="360" width="30" height="30" as="geometry" />
        </mxCell>
        <mxCell id="tLfT9vOAS1rbt2APkhs6-49" value="M" style="text;html=1;resizable=0;autosize=1;align=center;verticalAlign=middle;points=[];fillColor=none;strokeColor=none;fontSize=18;rounded=0;fontColor=#B5739D;fontStyle=1" vertex="1" parent="1">
          <mxGeometry x="80" y="360" width="30" height="30" as="geometry" />
        </mxCell>
        <mxCell id="tLfT9vOAS1rbt2APkhs6-58" value="" style="endArrow=none;html=1;fontSize=18;entryX=0;entryY=0.5;entryDx=0;entryDy=0;exitX=1;exitY=0.5;exitDx=0;exitDy=0;rounded=0;fontColor=#B5739D;fontStyle=1" edge="1" parent="1" source="tLfT9vOAS1rbt2APkhs6-5">
          <mxGeometry width="50" height="50" relative="1" as="geometry">
            <mxPoint x="920" y="400" as="sourcePoint" />
            <mxPoint x="959.9999999999998" y="392.5" as="targetPoint" />
          </mxGeometry>
        </mxCell>
        <mxCell id="tLfT9vOAS1rbt2APkhs6-61" value="" style="endArrow=none;html=1;fontSize=18;exitX=1;exitY=1;exitDx=0;exitDy=0;entryX=0;entryY=0.5;entryDx=0;entryDy=0;rounded=0;fontColor=#B5739D;fontStyle=1" edge="1" parent="1" source="tLfT9vOAS1rbt2APkhs6-5">
          <mxGeometry width="50" height="50" relative="1" as="geometry">
            <mxPoint x="925" y="462.5" as="sourcePoint" />
            <mxPoint x="970.0000000000064" y="445" as="targetPoint" />
          </mxGeometry>
        </mxCell>
        <mxCell id="tLfT9vOAS1rbt2APkhs6-81" value="" style="endArrow=none;html=1;fontSize=18;entryX=0.693;entryY=1.071;entryDx=0;entryDy=0;entryPerimeter=0;exitX=0.157;exitY=0.008;exitDx=0;exitDy=0;exitPerimeter=0;rounded=0;fontColor=#B5739D;fontStyle=1" edge="1" parent="1" source="tLfT9vOAS1rbt2APkhs6-3">
          <mxGeometry width="50" height="50" relative="1" as="geometry">
            <mxPoint x="740" y="290" as="sourcePoint" />
            <mxPoint x="779.4749999999999" y="182.83999999999992" as="targetPoint" />
          </mxGeometry>
        </mxCell>
        <mxCell id="tLfT9vOAS1rbt2APkhs6-82" value="" style="endArrow=none;html=1;fontSize=18;entryX=0.36;entryY=0.988;entryDx=0;entryDy=0;entryPerimeter=0;exitX=0.5;exitY=0;exitDx=0;exitDy=0;rounded=0;fontColor=#B5739D;fontStyle=1" edge="1" parent="1" source="tLfT9vOAS1rbt2APkhs6-3">
          <mxGeometry width="50" height="50" relative="1" as="geometry">
            <mxPoint x="816.98" y="250.31999999999994" as="sourcePoint" />
            <mxPoint x="857" y="159.51999999999998" as="targetPoint" />
          </mxGeometry>
        </mxCell>
        <mxCell id="tLfT9vOAS1rbt2APkhs6-83" value="" style="endArrow=none;html=1;fontSize=18;exitX=0.937;exitY=-0.054;exitDx=0;exitDy=0;exitPerimeter=0;rounded=0;fontColor=#B5739D;fontStyle=1" edge="1" parent="1" source="tLfT9vOAS1rbt2APkhs6-3">
          <mxGeometry width="50" height="50" relative="1" as="geometry">
            <mxPoint x="977.51" y="217.47999999999993" as="sourcePoint" />
            <mxPoint x="956.4014834229727" y="169.10400394406406" as="targetPoint" />
          </mxGeometry>
        </mxCell>
        <mxCell id="tLfT9vOAS1rbt2APkhs6-84" value="" style="endArrow=none;html=1;fontSize=18;entryX=0.693;entryY=1.071;entryDx=0;entryDy=0;entryPerimeter=0;exitX=1;exitY=0.25;exitDx=0;exitDy=0;rounded=0;fontColor=#B5739D;fontStyle=1" edge="1" parent="1" source="tLfT9vOAS1rbt2APkhs6-3">
          <mxGeometry width="50" height="50" relative="1" as="geometry">
            <mxPoint x="997.51" y="270.31999999999994" as="sourcePoint" />
            <mxPoint x="970.0049999999999" y="212.83999999999992" as="targetPoint" />
          </mxGeometry>
        </mxCell>
        <mxCell id="tLfT9vOAS1rbt2APkhs6-85" value="" style="endArrow=none;html=1;fontSize=18;entryX=0;entryY=0.5;entryDx=0;entryDy=0;exitX=1;exitY=0.75;exitDx=0;exitDy=0;rounded=0;fontColor=#B5739D;fontStyle=1" edge="1" parent="1" source="tLfT9vOAS1rbt2APkhs6-3">
          <mxGeometry width="50" height="50" relative="1" as="geometry">
            <mxPoint x="846.98" y="280.31999999999994" as="sourcePoint" />
            <mxPoint x="970.0000000000064" y="265" as="targetPoint" />
          </mxGeometry>
        </mxCell>
        <mxCell id="tLfT9vOAS1rbt2APkhs6-86" value="" style="endArrow=none;html=1;fontSize=18;entryX=0.949;entryY=0.842;entryDx=0;entryDy=0;entryPerimeter=0;exitX=0;exitY=0.5;exitDx=0;exitDy=0;rounded=0;fontColor=#B5739D;fontStyle=1" edge="1" parent="1" source="tLfT9vOAS1rbt2APkhs6-3">
          <mxGeometry width="50" height="50" relative="1" as="geometry">
            <mxPoint x="856.98" y="290.31999999999994" as="sourcePoint" />
            <mxPoint x="746.175" y="243.68000000000006" as="targetPoint" />
          </mxGeometry>
        </mxCell>
        <mxCell id="tLfT9vOAS1rbt2APkhs6-87" value="" style="endArrow=none;html=1;fontSize=18;entryX=1;entryY=0.25;entryDx=0;entryDy=0;entryPerimeter=0;exitX=0;exitY=0.75;exitDx=0;exitDy=0;rounded=0;fontColor=#B5739D;fontStyle=1" edge="1" parent="1" source="tLfT9vOAS1rbt2APkhs6-3">
          <mxGeometry width="50" height="50" relative="1" as="geometry">
            <mxPoint x="866.98" y="300.31999999999994" as="sourcePoint" />
            <mxPoint x="770" y="290" as="targetPoint" />
          </mxGeometry>
        </mxCell>
        <mxCell id="tLfT9vOAS1rbt2APkhs6-89" value="" style="endArrow=none;html=1;fontSize=18;entryX=1;entryY=1;entryDx=0;entryDy=0;exitX=0.053;exitY=0.258;exitDx=0;exitDy=0;exitPerimeter=0;rounded=0;fontColor=#B5739D;fontStyle=1" edge="1" parent="1" source="tLfT9vOAS1rbt2APkhs6-97" target="tLfT9vOAS1rbt2APkhs6-3">
          <mxGeometry width="50" height="50" relative="1" as="geometry">
            <mxPoint x="960.9834957055043" y="305.85786437626894" as="sourcePoint" />
            <mxPoint x="849.4749999999999" y="252.83999999999992" as="targetPoint" />
          </mxGeometry>
        </mxCell>
        <mxCell id="tLfT9vOAS1rbt2APkhs6-90" value="id" style="ellipse;whiteSpace=wrap;html=1;align=center;fontStyle=5;fontSize=18;rounded=0;fontColor=#B5739D;" vertex="1" parent="1">
          <mxGeometry x="670" y="275" width="100" height="40" as="geometry" />
        </mxCell>
        <mxCell id="tLfT9vOAS1rbt2APkhs6-91" value="number" style="ellipse;shape=doubleEllipse;margin=3;whiteSpace=wrap;html=1;align=center;fontSize=18;rounded=0;fontColor=#B5739D;fontStyle=1" vertex="1" parent="1">
          <mxGeometry x="970" y="190" width="100" height="40" as="geometry" />
        </mxCell>
        <mxCell id="tLfT9vOAS1rbt2APkhs6-92" value="room" style="ellipse;shape=doubleEllipse;margin=3;whiteSpace=wrap;html=1;align=center;fontSize=18;rounded=0;fontColor=#B5739D;fontStyle=1" vertex="1" parent="1">
          <mxGeometry x="805" y="130" width="100" height="40" as="geometry" />
        </mxCell>
        <mxCell id="tLfT9vOAS1rbt2APkhs6-93" value="gender" style="ellipse;whiteSpace=wrap;html=1;align=center;fontSize=18;rounded=0;fontColor=#B5739D;fontStyle=1" vertex="1" parent="1">
          <mxGeometry x="970" y="245" width="100" height="40" as="geometry" />
        </mxCell>
        <mxCell id="tLfT9vOAS1rbt2APkhs6-94" value="name" style="ellipse;whiteSpace=wrap;html=1;align=center;fontSize=18;rounded=0;fontColor=#B5739D;fontStyle=1" vertex="1" parent="1">
          <mxGeometry x="915" y="140" width="100" height="40" as="geometry" />
        </mxCell>
        <mxCell id="tLfT9vOAS1rbt2APkhs6-95" value="deposit" style="ellipse;whiteSpace=wrap;html=1;align=center;fontSize=18;rounded=0;fontColor=#B5739D;fontStyle=1" vertex="1" parent="1">
          <mxGeometry x="685" y="160" width="100" height="40" as="geometry" />
        </mxCell>
        <mxCell id="tLfT9vOAS1rbt2APkhs6-96" value="status" style="ellipse;whiteSpace=wrap;html=1;align=center;fontSize=18;rounded=0;fontColor=#B5739D;fontStyle=1" vertex="1" parent="1">
          <mxGeometry x="650" y="220" width="100" height="40" as="geometry" />
        </mxCell>
        <mxCell id="tLfT9vOAS1rbt2APkhs6-97" value="country" style="ellipse;whiteSpace=wrap;html=1;align=center;fontSize=18;rounded=0;fontColor=#B5739D;fontStyle=1" vertex="1" parent="1">
          <mxGeometry x="957.5" y="300" width="100" height="40" as="geometry" />
        </mxCell>
        <mxCell id="tLfT9vOAS1rbt2APkhs6-98" value="&lt;u&gt;username&lt;/u&gt;" style="ellipse;whiteSpace=wrap;html=1;align=center;fontSize=18;rounded=0;fontColor=#B5739D;fontStyle=1" vertex="1" parent="1">
          <mxGeometry x="960" y="375" width="100" height="40" as="geometry" />
        </mxCell>
        <mxCell id="tLfT9vOAS1rbt2APkhs6-99" value="password" style="ellipse;whiteSpace=wrap;html=1;align=center;fontSize=18;fontStyle=5;rounded=0;fontColor=#B5739D;" vertex="1" parent="1">
          <mxGeometry x="970" y="425" width="100" height="40" as="geometry" />
        </mxCell>
        <mxCell id="tLfT9vOAS1rbt2APkhs6-105" value="gender" style="ellipse;whiteSpace=wrap;html=1;align=center;fontSize=18;rounded=0;fontColor=#B5739D;fontStyle=1" vertex="1" parent="1">
          <mxGeometry x="180" y="235" width="100" height="40" as="geometry" />
        </mxCell>
        <mxCell id="tLfT9vOAS1rbt2APkhs6-106" value="name" style="ellipse;whiteSpace=wrap;html=1;align=center;fontSize=18;rounded=0;fontColor=#B5739D;fontStyle=1" vertex="1" parent="1">
          <mxGeometry x="230" y="190" width="100" height="40" as="geometry" />
        </mxCell>
        <mxCell id="tLfT9vOAS1rbt2APkhs6-107" value="age" style="ellipse;whiteSpace=wrap;html=1;align=center;fontSize=18;rounded=0;fontColor=#B5739D;fontStyle=1" vertex="1" parent="1">
          <mxGeometry x="320" y="160" width="100" height="40" as="geometry" />
        </mxCell>
        <mxCell id="tLfT9vOAS1rbt2APkhs6-108" value="salary" style="ellipse;whiteSpace=wrap;html=1;align=center;fontSize=18;rounded=0;fontColor=#B5739D;fontStyle=1" vertex="1" parent="1">
          <mxGeometry x="460" y="230" width="100" height="40" as="geometry" />
        </mxCell>
        <mxCell id="tLfT9vOAS1rbt2APkhs6-110" value="job" style="ellipse;whiteSpace=wrap;html=1;align=center;fontSize=18;rounded=0;fontColor=#B5739D;fontStyle=1" vertex="1" parent="1">
          <mxGeometry x="390" y="195" width="100" height="40" as="geometry" />
        </mxCell>
        <mxCell id="tLfT9vOAS1rbt2APkhs6-111" value="&lt;span&gt;Car&amp;nbsp; Model&lt;/span&gt;" style="ellipse;whiteSpace=wrap;html=1;align=center;fontSize=18;fontStyle=1;rounded=0;fontColor=#B5739D;" vertex="1" parent="1">
          <mxGeometry x="-110" y="450" width="100" height="40" as="geometry" />
        </mxCell>
        <mxCell id="tLfT9vOAS1rbt2APkhs6-112" value="phone" style="ellipse;shape=doubleEllipse;margin=3;whiteSpace=wrap;html=1;align=center;fontSize=18;rounded=0;fontColor=#B5739D;fontStyle=1" vertex="1" parent="1">
          <mxGeometry x="490" y="320" width="100" height="50" as="geometry" />
        </mxCell>
        <mxCell id="tLfT9vOAS1rbt2APkhs6-113" value="aadhar" style="ellipse;whiteSpace=wrap;html=1;align=center;fontStyle=5;fontSize=18;rounded=0;fontColor=#B5739D;" vertex="1" parent="1">
          <mxGeometry x="500" y="275" width="100" height="40" as="geometry" />
        </mxCell>
        <mxCell id="tLfT9vOAS1rbt2APkhs6-114" value="email" style="ellipse;shape=doubleEllipse;margin=3;whiteSpace=wrap;html=1;align=center;fontSize=18;rounded=0;fontColor=#B5739D;fontStyle=1" vertex="1" parent="1">
          <mxGeometry x="220" y="290" width="100" height="50" as="geometry" />
        </mxCell>
        <mxCell id="tLfT9vOAS1rbt2APkhs6-124" value="" style="endArrow=none;html=1;fontSize=18;entryX=0.5;entryY=1;entryDx=0;entryDy=0;rounded=0;fontColor=#B5739D;fontStyle=1" edge="1" parent="1" target="tLfT9vOAS1rbt2APkhs6-110">
          <mxGeometry width="50" height="50" relative="1" as="geometry">
            <mxPoint x="400" y="360" as="sourcePoint" />
            <mxPoint x="395" y="280" as="targetPoint" />
          </mxGeometry>
        </mxCell>
        <mxCell id="tLfT9vOAS1rbt2APkhs6-125" value="" style="endArrow=none;html=1;fontSize=18;entryX=0.5;entryY=1;entryDx=0;entryDy=0;rounded=0;fontColor=#B5739D;fontStyle=1" edge="1" parent="1">
          <mxGeometry width="50" height="50" relative="1" as="geometry">
            <mxPoint x="390" y="360" as="sourcePoint" />
            <mxPoint x="370" y="200" as="targetPoint" />
          </mxGeometry>
        </mxCell>
        <mxCell id="tLfT9vOAS1rbt2APkhs6-126" value="" style="endArrow=none;html=1;fontSize=18;entryX=0;entryY=1;entryDx=0;entryDy=0;rounded=0;fontColor=#B5739D;fontStyle=1" edge="1" parent="1" target="tLfT9vOAS1rbt2APkhs6-108">
          <mxGeometry width="50" height="50" relative="1" as="geometry">
            <mxPoint x="400" y="360" as="sourcePoint" />
            <mxPoint x="460" y="255" as="targetPoint" />
          </mxGeometry>
        </mxCell>
        <mxCell id="tLfT9vOAS1rbt2APkhs6-127" value="" style="endArrow=none;html=1;fontSize=18;entryX=0;entryY=0.5;entryDx=0;entryDy=0;exitX=0.5;exitY=0;exitDx=0;exitDy=0;rounded=0;fontColor=#B5739D;fontStyle=1" edge="1" parent="1" source="tLfT9vOAS1rbt2APkhs6-4" target="tLfT9vOAS1rbt2APkhs6-113">
          <mxGeometry width="50" height="50" relative="1" as="geometry">
            <mxPoint x="430" y="390" as="sourcePoint" />
            <mxPoint x="470" y="265" as="targetPoint" />
          </mxGeometry>
        </mxCell>
        <mxCell id="tLfT9vOAS1rbt2APkhs6-128" value="" style="endArrow=none;html=1;fontSize=18;entryX=0;entryY=0.5;entryDx=0;entryDy=0;exitX=0.75;exitY=0;exitDx=0;exitDy=0;rounded=0;fontColor=#B5739D;fontStyle=1" edge="1" parent="1" source="tLfT9vOAS1rbt2APkhs6-4" target="tLfT9vOAS1rbt2APkhs6-112">
          <mxGeometry width="50" height="50" relative="1" as="geometry">
            <mxPoint x="440" y="400" as="sourcePoint" />
            <mxPoint x="480" y="275" as="targetPoint" />
          </mxGeometry>
        </mxCell>
        <mxCell id="tLfT9vOAS1rbt2APkhs6-129" value="" style="endArrow=none;html=1;fontSize=18;entryX=1;entryY=1;entryDx=0;entryDy=0;exitX=0.321;exitY=0.011;exitDx=0;exitDy=0;exitPerimeter=0;rounded=0;fontColor=#B5739D;fontStyle=1" edge="1" parent="1" source="tLfT9vOAS1rbt2APkhs6-4" target="tLfT9vOAS1rbt2APkhs6-106">
          <mxGeometry width="50" height="50" relative="1" as="geometry">
            <mxPoint x="450" y="410" as="sourcePoint" />
            <mxPoint x="490" y="285" as="targetPoint" />
          </mxGeometry>
        </mxCell>
        <mxCell id="tLfT9vOAS1rbt2APkhs6-130" value="" style="endArrow=none;html=1;fontSize=18;entryX=1;entryY=0.5;entryDx=0;entryDy=0;rounded=0;fontColor=#B5739D;fontStyle=1" edge="1" parent="1" target="tLfT9vOAS1rbt2APkhs6-105">
          <mxGeometry width="50" height="50" relative="1" as="geometry">
            <mxPoint x="380" y="360" as="sourcePoint" />
            <mxPoint x="500" y="295" as="targetPoint" />
          </mxGeometry>
        </mxCell>
        <mxCell id="tLfT9vOAS1rbt2APkhs6-131" value="" style="endArrow=none;html=1;fontSize=18;entryX=1;entryY=1;entryDx=0;entryDy=0;exitX=0.114;exitY=-0.011;exitDx=0;exitDy=0;exitPerimeter=0;rounded=0;fontColor=#B5739D;fontStyle=1" edge="1" parent="1" source="tLfT9vOAS1rbt2APkhs6-4" target="tLfT9vOAS1rbt2APkhs6-114">
          <mxGeometry width="50" height="50" relative="1" as="geometry">
            <mxPoint x="470" y="430" as="sourcePoint" />
            <mxPoint x="510" y="305" as="targetPoint" />
          </mxGeometry>
        </mxCell>
        <mxCell id="tLfT9vOAS1rbt2APkhs6-132" value="dept" style="ellipse;whiteSpace=wrap;html=1;align=center;fontSize=18;rounded=0;fontColor=#B5739D;fontStyle=1" vertex="1" parent="1">
          <mxGeometry x="300" y="590" width="100" height="40" as="geometry" />
        </mxCell>
        <mxCell id="tLfT9vOAS1rbt2APkhs6-133" value="budget" style="ellipse;whiteSpace=wrap;html=1;align=center;fontSize=18;rounded=0;fontColor=#B5739D;fontStyle=1" vertex="1" parent="1">
          <mxGeometry x="460" y="590" width="100" height="40" as="geometry" />
        </mxCell>
        <mxCell id="tLfT9vOAS1rbt2APkhs6-134" value="" style="endArrow=none;html=1;fontSize=18;entryX=0.5;entryY=0;entryDx=0;entryDy=0;exitX=0.75;exitY=1;exitDx=0;exitDy=0;rounded=0;fontColor=#B5739D;fontStyle=1" edge="1" parent="1" source="tLfT9vOAS1rbt2APkhs6-2" target="tLfT9vOAS1rbt2APkhs6-133">
          <mxGeometry width="50" height="50" relative="1" as="geometry">
            <mxPoint x="480" y="440" as="sourcePoint" />
            <mxPoint x="520" y="315" as="targetPoint" />
          </mxGeometry>
        </mxCell>
        <mxCell id="tLfT9vOAS1rbt2APkhs6-135" value="" style="endArrow=none;html=1;fontSize=18;entryX=0.5;entryY=1;entryDx=0;entryDy=0;exitX=0.5;exitY=0;exitDx=0;exitDy=0;rounded=0;fontColor=#B5739D;fontStyle=1" edge="1" parent="1" source="tLfT9vOAS1rbt2APkhs6-132" target="tLfT9vOAS1rbt2APkhs6-2">
          <mxGeometry width="50" height="50" relative="1" as="geometry">
            <mxPoint x="490" y="450" as="sourcePoint" />
            <mxPoint x="530" y="325" as="targetPoint" />
          </mxGeometry>
        </mxCell>
        <mxCell id="tLfT9vOAS1rbt2APkhs6-136" value="Car Company" style="ellipse;whiteSpace=wrap;html=1;align=center;fontSize=18;rounded=0;fontColor=#B5739D;fontStyle=1" vertex="1" parent="1">
          <mxGeometry x="10" y="440" width="120" height="60" as="geometry" />
        </mxCell>
        <mxCell id="tLfT9vOAS1rbt2APkhs6-137" value="available" style="ellipse;whiteSpace=wrap;html=1;align=center;fontSize=18;rounded=0;fontColor=#B5739D;fontStyle=1" vertex="1" parent="1">
          <mxGeometry x="-220" y="367.5" width="100" height="40" as="geometry" />
        </mxCell>
        <mxCell id="tLfT9vOAS1rbt2APkhs6-138" value="available" style="ellipse;whiteSpace=wrap;html=1;align=center;fontSize=18;rounded=0;fontColor=#B5739D;fontStyle=1" vertex="1" parent="1">
          <mxGeometry x="670" y="580" width="100" height="40" as="geometry" />
        </mxCell>
        <mxCell id="tLfT9vOAS1rbt2APkhs6-139" value="room_number" style="ellipse;whiteSpace=wrap;html=1;align=center;fontSize=18;fontStyle=5;rounded=0;fontColor=#B5739D;" vertex="1" parent="1">
          <mxGeometry x="937.5" y="560" width="140" height="70" as="geometry" />
        </mxCell>
        <mxCell id="tLfT9vOAS1rbt2APkhs6-140" value="status" style="ellipse;whiteSpace=wrap;html=1;align=center;fontSize=18;rounded=0;fontColor=#B5739D;fontStyle=1" vertex="1" parent="1">
          <mxGeometry x="720" y="630" width="100" height="40" as="geometry" />
        </mxCell>
        <mxCell id="tLfT9vOAS1rbt2APkhs6-141" value="bed_type" style="ellipse;whiteSpace=wrap;html=1;align=center;fontSize=18;rounded=0;fontColor=#B5739D;fontStyle=1" vertex="1" parent="1">
          <mxGeometry x="925" y="640" width="100" height="40" as="geometry" />
        </mxCell>
        <mxCell id="tLfT9vOAS1rbt2APkhs6-142" value="price" style="ellipse;whiteSpace=wrap;html=1;align=center;fontSize=18;rounded=0;fontColor=#B5739D;fontStyle=1" vertex="1" parent="1">
          <mxGeometry x="820" y="660" width="100" height="50" as="geometry" />
        </mxCell>
        <mxCell id="tLfT9vOAS1rbt2APkhs6-144" value="" style="endArrow=none;html=1;fontSize=18;entryX=0.975;entryY=0.621;entryDx=0;entryDy=0;entryPerimeter=0;exitX=1;exitY=0;exitDx=0;exitDy=0;rounded=0;fontColor=#B5739D;fontStyle=1" edge="1" parent="1" source="tLfT9vOAS1rbt2APkhs6-138" target="tLfT9vOAS1rbt2APkhs6-6">
          <mxGeometry width="50" height="50" relative="1" as="geometry">
            <mxPoint x="800" y="630" as="sourcePoint" />
            <mxPoint x="850" y="580" as="targetPoint" />
          </mxGeometry>
        </mxCell>
        <mxCell id="tLfT9vOAS1rbt2APkhs6-145" value="" style="endArrow=none;html=1;fontSize=18;entryX=1;entryY=0.5;entryDx=0;entryDy=0;rounded=0;fontColor=#B5739D;fontStyle=1" edge="1" parent="1" target="tLfT9vOAS1rbt2APkhs6-6">
          <mxGeometry width="50" height="50" relative="1" as="geometry">
            <mxPoint x="810" y="640" as="sourcePoint" />
            <mxPoint x="848.06" y="559" as="targetPoint" />
          </mxGeometry>
        </mxCell>
        <mxCell id="tLfT9vOAS1rbt2APkhs6-146" value="" style="endArrow=none;html=1;fontSize=18;entryX=0.975;entryY=0.621;entryDx=0;entryDy=0;entryPerimeter=0;exitX=1;exitY=0.3;exitDx=0;exitDy=0;exitPerimeter=0;rounded=0;fontColor=#B5739D;fontStyle=1" edge="1" parent="1" source="tLfT9vOAS1rbt2APkhs6-6">
          <mxGeometry width="50" height="50" relative="1" as="geometry">
            <mxPoint x="870" y="550" as="sourcePoint" />
            <mxPoint x="948.06" y="644.5" as="targetPoint" />
          </mxGeometry>
        </mxCell>
        <mxCell id="tLfT9vOAS1rbt2APkhs6-147" value="" style="endArrow=none;html=1;fontSize=18;entryX=0;entryY=0.5;entryDx=0;entryDy=0;exitX=1.025;exitY=0.186;exitDx=0;exitDy=0;exitPerimeter=0;rounded=0;fontColor=#B5739D;fontStyle=1" edge="1" parent="1" source="tLfT9vOAS1rbt2APkhs6-6" target="tLfT9vOAS1rbt2APkhs6-139">
          <mxGeometry width="50" height="50" relative="1" as="geometry">
            <mxPoint x="830" y="660" as="sourcePoint" />
            <mxPoint x="868.06" y="579" as="targetPoint" />
          </mxGeometry>
        </mxCell>
        <mxCell id="tLfT9vOAS1rbt2APkhs6-148" value="" style="endArrow=none;html=1;fontSize=18;entryX=1;entryY=0.4;entryDx=0;entryDy=0;exitX=0.5;exitY=0;exitDx=0;exitDy=0;entryPerimeter=0;rounded=0;fontColor=#B5739D;fontStyle=1" edge="1" parent="1" source="tLfT9vOAS1rbt2APkhs6-142" target="tLfT9vOAS1rbt2APkhs6-6">
          <mxGeometry width="50" height="50" relative="1" as="geometry">
            <mxPoint x="840" y="670" as="sourcePoint" />
            <mxPoint x="878.06" y="589" as="targetPoint" />
          </mxGeometry>
        </mxCell>
        <mxCell id="tLfT9vOAS1rbt2APkhs6-150" value="age" style="ellipse;whiteSpace=wrap;html=1;align=center;fontSize=18;rounded=0;fontColor=#B5739D;fontStyle=1" vertex="1" parent="1">
          <mxGeometry x="-20" y="295" width="100" height="40" as="geometry" />
        </mxCell>
        <mxCell id="tLfT9vOAS1rbt2APkhs6-151" value="gender" style="ellipse;whiteSpace=wrap;html=1;align=center;fontSize=18;rounded=0;fontColor=#B5739D;fontStyle=1" vertex="1" parent="1">
          <mxGeometry x="-220" y="310" width="100" height="40" as="geometry" />
        </mxCell>
        <mxCell id="tLfT9vOAS1rbt2APkhs6-152" value="M" style="text;html=1;align=center;verticalAlign=middle;resizable=0;points=[];autosize=1;strokeColor=none;fillColor=none;fontSize=18;rounded=0;fontColor=#B5739D;fontStyle=1" vertex="1" parent="1">
          <mxGeometry x="520" y="385" width="30" height="30" as="geometry" />
        </mxCell>
        <mxCell id="tLfT9vOAS1rbt2APkhs6-154" value="location" style="ellipse;whiteSpace=wrap;html=1;align=center;fontSize=18;rounded=0;fontColor=#B5739D;fontStyle=1" vertex="1" parent="1">
          <mxGeometry x="-230" y="430" width="100" height="40" as="geometry" />
        </mxCell>
        <mxCell id="tLfT9vOAS1rbt2APkhs6-155" value="" style="endArrow=none;html=1;fontSize=18;rounded=0;fontColor=#B5739D;fontStyle=1" edge="1" parent="1">
          <mxGeometry width="50" height="50" relative="1" as="geometry">
            <mxPoint x="-40" y="370" as="sourcePoint" />
            <mxPoint x="-60" y="325" as="targetPoint" />
          </mxGeometry>
        </mxCell>
        <mxCell id="tLfT9vOAS1rbt2APkhs6-157" value="" style="endArrow=none;html=1;fontSize=18;exitX=0.55;exitY=0.013;exitDx=0;exitDy=0;exitPerimeter=0;rounded=0;fontColor=#B5739D;fontStyle=1" edge="1" parent="1">
          <mxGeometry width="50" height="50" relative="1" as="geometry">
            <mxPoint x="-3" y="368.02" as="sourcePoint" />
            <mxPoint x="15" y="335" as="targetPoint" />
          </mxGeometry>
        </mxCell>
        <mxCell id="tLfT9vOAS1rbt2APkhs6-158" value="" style="endArrow=none;html=1;fontSize=18;entryX=0;entryY=0;entryDx=0;entryDy=0;rounded=0;fontColor=#B5739D;fontStyle=1" edge="1" parent="1" source="tLfT9vOAS1rbt2APkhs6-151">
          <mxGeometry width="50" height="50" relative="1" as="geometry">
            <mxPoint x="-80" y="410" as="sourcePoint" />
            <mxPoint x="-80" y="367.5" as="targetPoint" />
          </mxGeometry>
        </mxCell>
        <mxCell id="tLfT9vOAS1rbt2APkhs6-160" value="" style="endArrow=none;html=1;fontSize=18;exitX=0.79;exitY=0.1;exitDx=0;exitDy=0;exitPerimeter=0;entryX=0.1;entryY=0.988;entryDx=0;entryDy=0;entryPerimeter=0;rounded=0;fontColor=#B5739D;fontStyle=1" edge="1" parent="1" source="tLfT9vOAS1rbt2APkhs6-154">
          <mxGeometry width="50" height="50" relative="1" as="geometry">
            <mxPoint x="-60" y="430" as="sourcePoint" />
            <mxPoint x="-66" y="407.02" as="targetPoint" />
          </mxGeometry>
        </mxCell>
        <mxCell id="tLfT9vOAS1rbt2APkhs6-161" value="" style="endArrow=none;html=1;fontSize=18;exitX=0.5;exitY=0;exitDx=0;exitDy=0;rounded=0;fontColor=#B5739D;fontStyle=1" edge="1" parent="1" source="tLfT9vOAS1rbt2APkhs6-111">
          <mxGeometry width="50" height="50" relative="1" as="geometry">
            <mxPoint x="-50" y="440" as="sourcePoint" />
            <mxPoint x="-30" y="410" as="targetPoint" />
          </mxGeometry>
        </mxCell>
        <mxCell id="tLfT9vOAS1rbt2APkhs6-162" value="" style="endArrow=none;html=1;fontSize=18;exitX=0.442;exitY=0;exitDx=0;exitDy=0;exitPerimeter=0;rounded=0;fontColor=#B5739D;fontStyle=1" edge="1" parent="1" source="tLfT9vOAS1rbt2APkhs6-136">
          <mxGeometry width="50" height="50" relative="1" as="geometry">
            <mxPoint x="-40" y="450" as="sourcePoint" />
            <mxPoint x="17.824761904762" y="407.5" as="targetPoint" />
          </mxGeometry>
        </mxCell>
        <mxCell id="tLfT9vOAS1rbt2APkhs6-166" value="" style="endArrow=none;html=1;fontSize=18;entryX=0;entryY=0.5;entryDx=0;entryDy=0;rounded=0;fontColor=#B5739D;fontStyle=1" edge="1" parent="1" source="tLfT9vOAS1rbt2APkhs6-137">
          <mxGeometry width="50" height="50" relative="1" as="geometry">
            <mxPoint x="-30" y="460" as="sourcePoint" />
            <mxPoint x="-80" y="387.5" as="targetPoint" />
          </mxGeometry>
        </mxCell>
        <mxCell id="tLfT9vOAS1rbt2APkhs6-167" value="Driver" style="shape=ext;margin=3;double=1;whiteSpace=wrap;html=1;align=center;fontSize=18;rounded=0;fontColor=#B5739D;fontStyle=1" vertex="1" parent="1">
          <mxGeometry x="-80" y="360" width="140" height="50" as="geometry" />
        </mxCell>
        <mxCell id="tLfT9vOAS1rbt2APkhs6-170" value="is" style="shape=rhombus;double=1;perimeter=rhombusPerimeter;whiteSpace=wrap;html=1;align=center;fontSize=18;rounded=0;fontColor=#B5739D;fontStyle=1" vertex="1" parent="1">
          <mxGeometry x="140" y="355" width="120" height="60" as="geometry" />
        </mxCell>
        <mxCell id="tLfT9vOAS1rbt2APkhs6-172" value="" style="line;strokeWidth=2;html=1;rounded=0;sketch=0;fontColor=#B5739D;fontStyle=1" vertex="1" parent="1">
          <mxGeometry x="260" y="380" width="80" height="10" as="geometry" />
        </mxCell>
        <mxCell id="tLfT9vOAS1rbt2APkhs6-175" value="" style="edgeStyle=orthogonalEdgeStyle;curved=0;rounded=1;sketch=0;orthogonalLoop=1;jettySize=auto;html=1;fontColor=#B5739D;fontStyle=1" edge="1" parent="1" source="tLfT9vOAS1rbt2APkhs6-173" target="tLfT9vOAS1rbt2APkhs6-172">
          <mxGeometry relative="1" as="geometry" />
        </mxCell>
        <mxCell id="tLfT9vOAS1rbt2APkhs6-4" value="Employee" style="whiteSpace=wrap;html=1;fontStyle=1;fontSize=18;rounded=0;fontColor=#B5739D;" vertex="1" parent="1">
          <mxGeometry x="340" y="362.5" width="140" height="45" as="geometry" />
        </mxCell>
        <mxCell id="tLfT9vOAS1rbt2APkhs6-179" value="" style="line;strokeWidth=2;direction=south;html=1;rounded=0;sketch=0;fontColor=#B5739D;fontStyle=1" vertex="1" parent="1">
          <mxGeometry x="850" y="280" width="10" height="230" as="geometry" />
        </mxCell>
        <mxCell id="tLfT9vOAS1rbt2APkhs6-14" value="&#xa;&#xa;&lt;span style=&quot;font-family: helvetica; font-size: 18px; font-style: normal; letter-spacing: normal; text-align: center; text-indent: 0px; text-transform: none; word-spacing: 0px; background-color: rgb(248, 249, 250); display: inline; float: none;&quot;&gt;has&lt;/span&gt;&#xa;&#xa;" style="rhombus;whiteSpace=wrap;html=1;fontSize=18;rounded=0;fontColor=#B5739D;fontStyle=1" vertex="1" parent="1">
          <mxGeometry x="820" y="290" width="70" height="40" as="geometry" />
        </mxCell>
        <mxCell id="tLfT9vOAS1rbt2APkhs6-5" value="Login" style="whiteSpace=wrap;html=1;fontStyle=1;fontSize=18;rounded=0;fontColor=#B5739D;" vertex="1" parent="1">
          <mxGeometry x="785" y="370" width="140" height="40" as="geometry" />
        </mxCell>
        <mxCell id="tLfT9vOAS1rbt2APkhs6-10" value="&#xa;&#xa;&lt;span style=&quot;font-family: helvetica; font-size: 18px; font-style: normal; letter-spacing: normal; text-align: center; text-indent: 0px; text-transform: none; word-spacing: 0px; background-color: rgb(248, 249, 250); display: inline; float: none;&quot;&gt;has&lt;/span&gt;&#xa;&#xa;" style="rhombus;whiteSpace=wrap;html=1;fontSize=18;rounded=0;fontColor=#B5739D;fontStyle=1" vertex="1" parent="1">
          <mxGeometry x="830" y="440" width="50" height="50" as="geometry" />
        </mxCell>
        <mxCell id="tLfT9vOAS1rbt2APkhs6-187" value="&lt;span style=&quot;border-bottom: 1px dotted&quot;&gt;name&lt;/span&gt;" style="ellipse;whiteSpace=wrap;html=1;align=center;rounded=0;sketch=0;fontColor=#B5739D;fontStyle=1" vertex="1" parent="1">
          <mxGeometry x="-120" y="285" width="100" height="40" as="geometry" />
        </mxCell>
      </root>
    </mxGraphModel>
  </diagram>
</mxfile>
